<?xml version="1.0" encoding="iso-8859-1"?>
<!-- Generator: Adobe Illustrator 19.0.0, SVG Export Plug-In . SVG Version: 6.00 Build 0)  -->
<svg version="1.1" id="Layer_1" xmlns="http://www.w3.org/2000/svg" xmlns:xlink="http://www.w3.org/1999/xlink" x="0px" y="0px"
	 viewBox="0 0 503.607 503.607" style="enable-background:new 0 0 503.607 503.607;" xml:space="preserve">
<g>
	<g>
		<g>
			<path d="M478.426,75.54H25.18C11.298,75.54,0,86.837,0,100.72v167.869c0,13.883,11.298,25.18,25.18,25.18h453.246
				c13.883,0,25.18-11.298,25.18-25.18V100.72C503.607,86.837,492.309,75.54,478.426,75.54z M218.23,134.294h67.148
				c4.642,0,8.393,3.752,8.393,8.393s-3.752,8.393-8.393,8.393H218.23c-4.642,0-8.393-3.752-8.393-8.393
				S213.588,134.294,218.23,134.294z M461.639,260.195H41.967c-4.642,0-8.393-3.752-8.393-8.393c0-4.642,3.752-8.393,8.393-8.393
				h419.672c4.642,0,8.393,3.752,8.393,8.393C470.033,256.444,466.281,260.195,461.639,260.195z M461.639,226.622H41.967
				c-4.642,0-8.393-3.752-8.393-8.393c0-4.642,3.752-8.393,8.393-8.393h419.672c4.642,0,8.393,3.752,8.393,8.393
				C470.033,222.87,466.281,226.622,461.639,226.622z"/>
			<path d="M255.663,353.466c-7.672-3.978-12.254-9.031-12.254-13.53s4.583-9.56,12.254-13.539
				c4.113-2.132,5.724-7.193,3.592-11.306c-2.132-4.113-7.202-5.733-11.314-3.592c-13.748,7.126-21.319,17.223-21.319,28.437
				s7.571,21.311,21.319,28.429c7.672,3.979,12.254,9.04,12.254,13.539s-4.583,9.552-12.254,13.53
				c-4.113,2.132-5.724,7.193-3.592,11.314c1.494,2.879,4.423,4.532,7.462,4.532c1.293,0,2.627-0.302,3.853-0.948
				c13.748-7.118,21.319-17.215,21.319-28.429C276.983,370.689,269.412,360.592,255.663,353.466z"/>
			<path d="M163.336,370.253c-7.672-3.979-12.254-9.031-12.254-13.53s4.583-9.56,12.254-13.539
				c4.113-2.132,5.724-7.193,3.592-11.306c-2.132-4.113-7.21-5.741-11.314-3.592c-13.748,7.126-21.319,17.223-21.319,28.437
				s7.571,21.311,21.319,28.429c7.672,3.979,12.254,9.04,12.254,13.539s-4.583,9.552-12.254,13.53
				c-4.113,2.132-5.724,7.193-3.592,11.314c1.494,2.879,4.423,4.532,7.462,4.532c1.293,0,2.627-0.302,3.853-0.948
				c13.748-7.118,21.319-17.215,21.319-28.429S177.084,377.379,163.336,370.253z"/>
			<path d="M347.991,370.253c-7.672-3.979-12.254-9.031-12.254-13.53s4.583-9.56,12.254-13.539
				c4.113-2.132,5.724-7.193,3.592-11.306c-2.132-4.113-7.21-5.741-11.314-3.592c-13.748,7.126-21.319,17.223-21.319,28.437
				s7.571,21.311,21.319,28.429c7.672,3.979,12.254,9.04,12.254,13.539s-4.583,9.552-12.254,13.53
				c-4.113,2.132-5.724,7.193-3.592,11.314c1.494,2.879,4.423,4.532,7.462,4.532c1.293,0,2.627-0.302,3.853-0.948
				c13.748-7.118,21.319-17.215,21.319-28.429S361.74,377.379,347.991,370.253z"/>
		</g>
	</g>
</g>
<g>
</g>
<g>
</g>
<g>
</g>
<g>
</g>
<g>
</g>
<g>
</g>
<g>
</g>
<g>
</g>
<g>
</g>
<g>
</g>
<g>
</g>
<g>
</g>
<g>
</g>
<g>
</g>
<g>
</g>
</svg>
