<?xml version="1.0" encoding="iso-8859-1"?>
<!-- Generator: Adobe Illustrator 16.0.0, SVG Export Plug-In . SVG Version: 6.00 Build 0)  -->
<!DOCTYPE svg PUBLIC "-//W3C//DTD SVG 1.1//EN" "http://www.w3.org/Graphics/SVG/1.1/DTD/svg11.dtd">
<svg version="1.1" id="Capa_1" xmlns="http://www.w3.org/2000/svg" xmlns:xlink="http://www.w3.org/1999/xlink" x="0px" y="0px"
	 width="560.85px" height="560.85px" viewBox="0 0 560.85 560.85" style="enable-background:new 0 0 560.85 560.85;"
	 xml:space="preserve">
<g>
	<g>
		<path d="M143.945,61.558c0.12,5.229,1.016,11.502,3.905,14.909c0.688,0.811,2.515,2.965,8.62,2.965h247.911
			c16.983,0,29.64,0.003,39.502,2.032V43.587H175.512C161.708,43.587,149.78,50.906,143.945,61.558z"/>
		<path d="M234.056,293.668c-0.902-2.938-2.356-2.935-3.25,0.007l-11.353,37.365c-0.894,2.94,0.872,5.321,3.944,5.321h18.204
			c3.072,0,4.832-2.381,3.929-5.318L234.056,293.668z"/>
		<path d="M443.883,97.238c-8.061-2.494-20.435-2.509-39.502-2.509H156.47c-7.072,0-12.366-1.842-16.347-4.737
			c-15.371-11.181-10.896-38.333-10.896-38.333c0.07-0.19,0.156-0.364,0.22-0.56c5.085-14.988,19.29-23.565,34.486-23.565
			c1.123,0,2.252,0.046,3.381,0.141c0.441,0.037,0.873,0.055,1.289,0.055c1.31,0,2.509-0.174,3.602-0.487h271.005
			c17.568,0,17.568-27.243,0-27.243H167.366c-1.104,0-2.139,0.107-3.106,0.312c-0.615-0.019-1.227-0.031-1.839-0.031
			c-31.839,0-60.613,26.35-60.438,58.492c0.263,48.434,0,96.877,0,145.313c0,66.94,0,133.881,0,200.821c0,33.819,0,67.636,0,101.455
			c0,30.092,24.394,54.486,54.486,54.486h247.911c54.486,0,54.486,0,54.486-54.486V149.215
			C458.867,114.221,458.354,101.718,443.883,97.238z M300.062,387.283H267.97c-3.072,0-6.285-2.384-7.176-5.324l-3.455-11.398
			c-0.891-2.941-4.104-5.325-7.176-5.325h-35.729c-3.072,0-6.267,2.391-7.139,5.334l-3.36,11.377
			c-0.869,2.947-4.067,5.334-7.139,5.334h-31.007c-3.072,0-4.685-2.332-3.605-5.208l46.283-123.141
			c1.08-2.876,4.446-5.208,7.521-5.208h33.886c3.072,0,6.438,2.332,7.519,5.208l46.272,123.141
			C304.747,384.954,303.135,387.283,300.062,387.283z M416.037,329.795c0,3.072-2.491,5.562-5.563,5.562h-23.947
			c-3.072,0-5.563,2.491-5.563,5.563v23.767c0,3.072-2.491,5.563-5.562,5.563h-18.303c-3.072,0-5.562-2.491-5.562-5.563v-23.767
			c0-3.072-2.491-5.563-5.563-5.563h-23.767c-3.072,0-5.563-2.49-5.563-5.562v-18.299c0-3.072,2.491-5.563,5.563-5.563h23.767
			c3.072,0,5.563-2.49,5.563-5.562v-23.951c0-3.072,2.49-5.563,5.562-5.563H375.4c3.071,0,5.562,2.491,5.562,5.563v23.951
			c0,3.072,2.491,5.562,5.563,5.562h23.947c3.072,0,5.563,2.491,5.563,5.563V329.795z"/>
	</g>
</g>
<g>
</g>
<g>
</g>
<g>
</g>
<g>
</g>
<g>
</g>
<g>
</g>
<g>
</g>
<g>
</g>
<g>
</g>
<g>
</g>
<g>
</g>
<g>
</g>
<g>
</g>
<g>
</g>
<g>
</g>
</svg>
