<?xml version="1.0" encoding="iso-8859-1"?>
<!-- Generator: Adobe Illustrator 18.0.0, SVG Export Plug-In . SVG Version: 6.00 Build 0)  -->
<!DOCTYPE svg PUBLIC "-//W3C//DTD SVG 1.1//EN" "http://www.w3.org/Graphics/SVG/1.1/DTD/svg11.dtd">
<svg version="1.1" id="Capa_1" xmlns="http://www.w3.org/2000/svg" xmlns:xlink="http://www.w3.org/1999/xlink" x="0px" y="0px"
	 viewBox="0 0 451.938 451.938" style="enable-background:new 0 0 451.938 451.938;" xml:space="preserve">
<g>
	<path d="M439.469,336.902V178.526h6.143v-30H317.266v188.376h-10V110.526h10h9.202v-26.5h-9.202H134.672h-9.202v26.5h9.202h10
		v226.376h-10V148.526H6.326v30h6.143v158.376H0v31.009h451.938v-31.009H439.469z M95.136,304.378H51.802v-40.642h43.334V304.378z
		 M95.136,244.378H51.802v-40.642h43.334V244.378z M197.045,185.305c0-0.511,0.416-0.927,0.928-0.927h5.143v4.869
		c0,0.73,0.595,1.323,1.322,1.323h4.061c0.73,0,1.324-0.593,1.324-1.323v-4.869h32.291v4.869c0,0.73,0.595,1.323,1.323,1.323h4.063
		c0.727,0,1.322-0.593,1.322-1.323v-4.869h5.143c0.512,0,0.928,0.415,0.928,0.927v48.146c0,0.511-0.416,0.927-0.928,0.927h-5.143
		v-4.869c0-0.73-0.595-1.323-1.322-1.323h-4.063c-0.729,0-1.323,0.593-1.323,1.323v4.869h-32.291v-4.869
		c0-0.73-0.595-1.323-1.324-1.323h-4.061c-0.728,0-1.322,0.593-1.322,1.323v4.869h-5.143c-0.512,0-0.928-0.416-0.928-0.927V185.305z
		 M218.141,336.902h-37.966v-64.626h37.966V336.902z M271.763,336.902h-37.966v-64.626h37.966V336.902z M400.136,304.378h-43.334
		v-40.642h43.334V304.378z M400.136,244.378h-43.334v-40.642h43.334V244.378z"/>
	<path d="M243.438,221.454h4.063c0.727,0,1.322-0.593,1.322-1.323v-6.064c0-0.73-0.595-1.323-1.322-1.323h-4.063
		c-0.729,0-1.323,0.594-1.323,1.323v6.064C242.114,220.861,242.709,221.454,243.438,221.454z"/>
	<path d="M204.438,221.454h4.061c0.73,0,1.324-0.593,1.324-1.323v-6.064c0-0.73-0.595-1.323-1.324-1.323h-4.061
		c-0.728,0-1.322,0.594-1.322,1.323v6.064C203.115,220.861,203.71,221.454,204.438,221.454z"/>
	<path d="M204.438,206.013h4.061c0.73,0,1.324-0.594,1.324-1.323v-6.064c0-0.73-0.595-1.323-1.324-1.323h-4.061
		c-0.728,0-1.322,0.593-1.322,1.323v6.064C203.115,205.419,203.71,206.013,204.438,206.013z"/>
	<path d="M243.438,206.013h4.063c0.727,0,1.322-0.594,1.322-1.323v-6.064c0-0.73-0.595-1.323-1.322-1.323h-4.063
		c-0.729,0-1.323,0.593-1.323,1.323v6.064C242.114,205.419,242.709,206.013,243.438,206.013z"/>
</g>
<g>
</g>
<g>
</g>
<g>
</g>
<g>
</g>
<g>
</g>
<g>
</g>
<g>
</g>
<g>
</g>
<g>
</g>
<g>
</g>
<g>
</g>
<g>
</g>
<g>
</g>
<g>
</g>
<g>
</g>
</svg>
