<?xml version="1.0" standalone="no"?>
<!DOCTYPE svg PUBLIC "-//W3C//DTD SVG 20010904//EN"
 "http://www.w3.org/TR/2001/REC-SVG-20010904/DTD/svg10.dtd">
<svg version="1.0" xmlns="http://www.w3.org/2000/svg"
 width="512.000000pt" height="512.000000pt" viewBox="0 0 512.000000 512.000000"
 preserveAspectRatio="xMidYMid meet">

<g transform="translate(0.000000,512.000000) scale(0.100000,-0.100000)"
fill="#000000" stroke="none">
<path d="M3485 4354 c-77 -8 -181 -25 -247 -40 l-68 -16 0 -389 c0 -364 1
-389 18 -389 9 0 53 7 97 15 44 8 149 19 233 26 165 13 382 2 543 -26 46 -8
90 -15 97 -15 9 0 12 83 12 383 l0 384 -97 21 c-54 12 -127 27 -163 32 -69 12
-359 21 -425 14z"/>
<path d="M2930 4216 c-251 -109 -458 -250 -622 -424 l-58 -61 0 -320 c0 -177
2 -321 4 -321 3 0 40 25 83 56 171 123 363 222 560 290 l113 39 0 388 c0 213
-1 387 -2 386 -2 0 -37 -15 -78 -33z"/>
<path d="M4330 3852 l0 -377 118 -40 c147 -49 359 -154 487 -240 54 -36 100
-65 102 -65 2 0 3 135 3 301 l0 301 -67 70 c-81 84 -207 185 -323 261 -78 50
-238 135 -296 157 l-24 10 0 -378z"/>
<path d="M3488 3399 c-92 -7 -261 -33 -300 -45 -16 -5 -18 -24 -18 -214 l0
-208 143 -4 c129 -3 147 -5 191 -28 56 -29 102 -80 121 -136 l13 -39 159 -7
c87 -3 202 -11 255 -17 54 -6 102 -11 108 -11 7 0 10 108 10 329 0 305 -1 330
-17 335 -47 14 -200 37 -308 46 -135 11 -215 11 -357 -1z"/>
<path d="M101 3314 c-28 -35 -26 -66 3 -101 l24 -28 265 -3 265 -3 7 -27 c4
-15 108 -452 231 -972 174 -734 229 -949 244 -965 20 -20 32 -20 1091 -20
l1071 0 19 24 c22 27 25 79 5 107 -14 19 -39 19 -1042 24 l-1028 5 -13 50 c-7
28 -13 58 -13 67 0 17 49 18 814 20 778 3 815 4 835 22 26 24 601 1149 601
1177 0 11 -13 34 -29 50 l-29 29 -1251 0 c-1182 0 -1250 1 -1255 18 -2 9 -30
125 -61 257 -31 133 -64 251 -74 265 l-18 25 -321 3 -320 2 -21 -26z"/>
<path d="M2891 3264 c-182 -70 -396 -191 -535 -303 l-39 -31 347 0 346 0 0
190 c0 105 -1 190 -2 189 -2 0 -54 -21 -117 -45z"/>
<path d="M4330 2986 l0 -324 93 -22 c135 -32 370 -112 498 -170 62 -27 114
-50 116 -50 2 0 3 114 3 253 l0 253 -96 68 c-179 129 -356 223 -541 290 l-73
26 0 -324z"/>
<path d="M3432 2224 c-95 -184 -172 -337 -172 -338 0 -2 188 -6 418 -10 229
-3 434 -9 455 -12 l37 -6 0 335 0 334 -57 7 c-136 15 -305 26 -404 26 l-106 0
-171 -336z"/>
<path d="M4332 2172 l3 -327 75 -7 c160 -16 417 -68 608 -124 l22 -6 0 264 0
264 -107 52 c-168 80 -392 161 -544 196 l-59 14 2 -326z"/>
<path d="M3125 1624 c-27 -54 -51 -102 -53 -105 -2 -4 60 -9 137 -11 137 -3
140 -4 182 -33 70 -49 102 -104 107 -181 10 -148 -82 -248 -238 -261 l-67 -6
13 -45 c18 -58 18 -107 -1 -168 -8 -27 -15 -50 -15 -51 0 -2 221 -3 490 -3
l490 0 0 469 0 469 -37 6 c-21 3 -245 9 -498 12 l-460 6 -50 -98z"/>
<path d="M4330 1223 l0 -463 330 0 331 0 24 25 25 24 0 365 0 365 -84 26
c-150 46 -383 93 -553 113 l-73 8 0 -463z"/>
<path d="M1300 1023 c-73 -38 -100 -124 -60 -191 57 -94 183 -94 240 0 68 112
-63 252 -180 191z"/>
<path d="M2860 1023 c-101 -52 -105 -184 -8 -243 64 -39 146 -16 188 52 68
112 -63 252 -180 191z"/>
</g>
</svg>
