<?xml version="1.0" standalone="no"?>
<!DOCTYPE svg PUBLIC "-//W3C//DTD SVG 20010904//EN"
 "http://www.w3.org/TR/2001/REC-SVG-20010904/DTD/svg10.dtd">
<svg version="1.0" xmlns="http://www.w3.org/2000/svg"
 width="512.000000pt" height="512.000000pt" viewBox="0 0 512.000000 512.000000"
 preserveAspectRatio="xMidYMid meet">

<g transform="translate(0.000000,512.000000) scale(0.100000,-0.100000)"
fill="#000000" stroke="none">
<path d="M4140 4850 c-368 -78 -736 -370 -911 -721 -141 -283 -175 -576 -93
-801 35 -96 34 -125 -5 -200 -82 -157 -269 -332 -519 -487 l-83 -52 -67 47
c-95 68 -241 216 -296 302 -106 166 -144 297 -156 537 -10 209 -36 297 -120
420 -50 73 -131 140 -664 555 l-529 412 -49 -49 -49 -49 581 -544 580 -545
-62 -62 -63 -63 -562 562 -563 563 -52 -53 -53 -52 563 -563 562 -562 -52 -53
-53 -52 -562 562 -563 563 -47 -48 -48 -47 558 -558 557 -557 -63 -63 -64 -63
-85 88 c-47 48 -289 304 -538 568 -249 264 -455 481 -459 483 -4 1 -30 -21
-58 -50 l-51 -53 448 -564 c247 -311 468 -580 492 -599 120 -95 221 -130 413
-142 173 -12 238 -23 340 -62 182 -70 348 -196 485 -369 l41 -52 -840 -841
c-915 -916 -884 -881 -885 -996 0 -78 20 -127 78 -189 92 -97 211 -128 316
-80 35 15 231 206 865 839 l820 820 810 -811 c648 -649 820 -816 860 -835 177
-84 382 58 362 251 -3 29 -13 68 -22 86 -9 19 -397 415 -862 881 l-846 846 25
44 c50 84 180 249 261 331 91 91 186 159 260 183 48 16 50 16 145 -16 84 -29
114 -34 230 -38 215 -8 382 31 583 135 469 242 795 787 729 1218 -15 97 -55
214 -101 292 -44 74 -187 218 -261 262 -77 45 -165 79 -246 96 -92 20 -258 18
-362 -5z m-268 -477 c-124 -123 -238 -245 -261 -281 -67 -100 -194 -402 -242
-572 l-12 -45 -9 40 c-13 56 -2 233 21 335 48 210 111 332 234 452 84 83 217
177 313 223 59 28 152 64 167 65 5 0 -91 -98 -211 -217z"/>
</g>
</svg>
