<?xml version="1.0" encoding="iso-8859-1"?>
<!-- Generator: Adobe Illustrator 16.0.0, SVG Export Plug-In . SVG Version: 6.00 Build 0)  -->
<!DOCTYPE svg PUBLIC "-//W3C//DTD SVG 1.1//EN" "http://www.w3.org/Graphics/SVG/1.1/DTD/svg11.dtd">
<svg version="1.1" id="Capa_1" xmlns="http://www.w3.org/2000/svg" xmlns:xlink="http://www.w3.org/1999/xlink" x="0px" y="0px"
	 width="569.696px" height="569.695px" viewBox="0 0 569.696 569.695" style="enable-background:new 0 0 569.696 569.695;"
	 xml:space="preserve">
<g>
	<g>
		<path d="M171.087,344.757c13.885,27.654,40.22,48.194,72.561,53.751l4.16,0.717l-2.659,58.169
			c-1.453-0.373-3.079-0.603-4.599-0.909c-1.616-0.334-3.185-0.707-4.887-0.965c-4.944-0.746-10.146-1.263-15.816-1.263
			c-7.688,0-14.784,1.032-21.305,2.812c3.223,1.128,6.34,2.333,9.323,3.634c2.515,1.1,4.954,2.257,7.296,3.452
			c1.616-0.105,3.156-0.335,4.839-0.335c5.47,0,10.509,0.469,15.223,1.233c1.693,0.277,3.29,0.612,4.887,0.966
			c1.559,0.345,3.117,0.698,4.58,1.109c13.818,3.901,23.763,10.604,30.476,16.734c1.865,1.702,3.509,3.366,4.886,4.896
			c2.831,3.155,4.609,5.728,5.556,7.2c0.431,0.669,0.727,1.176,0.804,1.31l0.182,0.335c1.147-0.765,2.275-1.521,3.528-2.257
			c0.421-0.248,0.765-0.525,1.195-0.765c1.912-1.09,4.093-2.056,6.226-3.051c6.942-13.225,29.644-47.755,80.611-58.561l0.125-2.601
			l0.334-7.163c-53.751,10.682-79.771,46.665-88.73,62.481c-1.425-1.778-3.309-3.844-5.412-5.977
			c-1.587-1.616-3.385-3.261-5.384-4.953c-1.53-1.291-3.05-2.592-4.829-3.873l-5.001-71.154l4.466-0.583
			c43.203-5.595,77.141-38.499,85.402-79.904c-46.684-20.311-80.038-65.446-83.566-118.642c-4.848-0.727-9.773-1.214-14.812-1.214
			c-6.091,0-12.02,0.631-17.815,1.673c6.149,30.15,9.505,56.629,9.505,73.449C252.426,332.622,218.288,343.141,171.087,344.757z"/>
		<path d="M440.607,422.748l0.525,7.354l0.182,2.592c72.044,14.258,98.312,76.787,106.163,102.769
			c1.778,1.692,3.472,3.404,5.078,5.145c3.031,3.289,5.775,6.636,8.128,9.954h0.162l-1.1-5.67
			C559.526,543.752,538.67,440.688,440.607,422.748z"/>
		<path d="M284.958,197.513c0.077,1.673,0.115,3.356,0.259,5.011c4.093,47.554,33.88,87.775,75.4,106.833
			c1.511,0.698,3.002,1.425,4.552,2.065c1.491,0.621,3.05,1.109,4.57,1.673c4.485,1.655,9.085,3.07,13.78,4.236l2.945-63.657
			l-62.95-95.491l66.736,36.644l8.032-93.693h25.149l4.399,133.474l72.771-21.621l-68.726,87.277l1.387,19.459
			c62.787-9.112,111.211-63.141,111.211-128.415c0-71.642-58.283-129.916-129.916-129.916s-129.916,58.283-129.916,129.916
			c0,0.411,0.058,0.813,0.058,1.214C284.719,194.205,284.881,195.85,284.958,197.513z"/>
		<path d="M40.272,326.358c16.256,8.357,39.904,9.113,64.805,9.123l1.827-25.647l-68.726-87.276l72.771,21.621l4.398-133.483h25.149
			l8.033,93.684l66.737-36.644l-62.95,95.491l0.688,14.784l2.458,55.492l0.201,6.693c0.382,0,0.765,0,1.147,0
			c1.664,0,3.337-2.381,4.963-2.4c1.74-0.019,3.433-1.253,5.125-1.291c46.34-1.032,75.964-9.715,75.964-61.419
			c0-18.035-3.242-43.653-8.932-71.671c-0.315-1.559-0.631-3.27-0.965-4.848c-0.325-1.54-0.669-3.174-1.014-4.724
			C213.038,107.128,172.025,0,129.319,0C70.987,0,15.773,199.76,15.773,274.52C15.783,301.305,23.558,317.762,40.272,326.358z"/>
		<path d="M392.775,324.092l-0.22,4.791l-4.294,92.718l-0.334,7.287l-0.115,2.457l-3.079,66.526
			c15.004,10.566,24.365,24.088,28.678,31.365c4.59-3.127,12.785-7.746,24.375-11.752l-6.158-86.417l-0.182-2.524l-0.517-7.258
			l-6.483-90.996l-0.344-4.763l-0.345-4.762l-1.673-23.505l52.393-66.536l-55.788,16.572l-4.513-136.601h-7.124l-8.54,99.574
			l-45.795-25.13l43.434,65.876l-3.165,68.276L392.775,324.092z"/>
		<path d="M140.258,219.832l-8.53-99.574h-7.124l-4.504,136.61l-55.788-16.572l52.393,66.536l-0.134,1.846l-1.913,26.784
			l-0.344,4.781l-0.344,4.781l-7.755,108.841c12.335-3.242,26-5.116,41.167-5.116c1.358,0,2.61,0.124,3.949,0.152l-4.81-103.867
			l-0.22-4.781l-0.22-4.781l-3.471-74.894l43.433-65.876L140.258,219.832z"/>
		<path d="M538.565,541.008c-13.072-12.039-30.82-22.166-49.477-22.166c-16.619,0-30.294,2.343-41.243,5.451
			c-1.73,0.487-3.423,0.994-5.021,1.52c-1.501,0.498-2.983,0.995-4.36,1.512c-3.643,1.357-6.837,2.764-9.619,4.121
			c-9.133,4.456-13.694,8.415-13.79,8.511l-1.176,1.052l-3.576,3.193l-1.53-3.193l-1.224-2.562c-0.058-0.115-1.425-2.897-4.103-7
			c-3.748-5.757-10.155-14.134-19.259-21.669c-1.415-1.166-2.869-2.323-4.418-3.433c-1.559-1.128-3.155-2.237-4.849-3.28
			c-9.954-6.12-22.261-10.557-36.997-10.557c-20.722,0-35.955,6.292-46.569,13.416c-0.028,0.02-0.066,0.038-0.096,0.058
			c-1.692,1.138-3.241,2.295-4.695,3.452c-1.769,1.405-3.337,2.802-4.781,4.159c-1.578,1.492-3.012,2.945-4.217,4.294
			c-4.083,4.571-6.005,7.966-6.062,8.07l-4.858,8.865l-3.777-9.391c-0.488-1.205-6.015-14.401-19.517-28.783
			c-1.368-1.453-2.878-2.926-4.418-4.398c-1.492-1.425-3.108-2.831-4.762-4.256c-9.142-7.831-20.817-15.3-35.515-20.827
			c-2.075-0.774-4.16-1.549-6.35-2.237c-2.629-0.832-5.431-1.53-8.243-2.219c-7.019-1.73-14.506-3.069-22.682-3.758
			c-1.606-0.134-3.337-0.144-4.992-0.229c-1.521-0.086-3.041-0.172-4.6-0.211c-1.492-0.038-2.859-0.2-4.389-0.2
			c-15.673,0-29.453,2.228-41.903,5.785c-1.549,0.439-3.108,0.86-4.609,1.349c-1.74,0.563-3.519,1.07-5.192,1.692
			C34.22,489.935,13.823,550.599,8.85,569.695h221.573h5.001h50.222h5.136h268.257c-1.616-5.402-5.643-12.23-11.37-19.125
			C545,547.348,541.941,544.115,538.565,541.008z"/>
	</g>
</g>
<g>
</g>
<g>
</g>
<g>
</g>
<g>
</g>
<g>
</g>
<g>
</g>
<g>
</g>
<g>
</g>
<g>
</g>
<g>
</g>
<g>
</g>
<g>
</g>
<g>
</g>
<g>
</g>
<g>
</g>
</svg>
