<?xml version="1.0" encoding="iso-8859-1"?>
<!-- Generator: Adobe Illustrator 18.1.1, SVG Export Plug-In . SVG Version: 6.00 Build 0)  -->
<svg version="1.1" id="Capa_1" xmlns="http://www.w3.org/2000/svg" xmlns:xlink="http://www.w3.org/1999/xlink" x="0px" y="0px"
	 viewBox="0 0 283.998 283.998" style="enable-background:new 0 0 283.998 283.998;" xml:space="preserve">
<g>
	<path style="fill:#030104;" d="M283.373,235.705c-60.753-2.61,25.15-69.133-47.985-101.74v-13.654
		c-21.43-4.657-38.979-15.804-49.843-37.24l0.165-43.538c-5.564-26.42-57.103-27.388-63.528-0.048l0,0l-0.073,43.586
		c-6.479,17.166-20.724,30.162-47.03,37.273v13.838C-37.93,170.606,104.154,251.623,0.967,247.92c-1.277,2.945-1.302,5.773,0,8.432
		c113.31-4.489-24.756-88.885,74.112-112.883v99.982c0.023,16.478,7.675,21.199,17.375,21.199h125.872
		c14.173,0.021,17.062-8.525,17.062-21.473V142.272c63.967,21.501-22.988,96.79,47.985,100.982
		C284.216,240.861,284.195,238.336,283.373,235.705z M130.509,43.609c4.979-20.119,42.89-19.566,46.736,0v35.147h-46.736V43.609z
		 M193.727,183.872c-24.512,10.579-49.469,11.86-75.039,0v-46.901c24.096,8.403,49.19,7.59,75.039,0V183.872z"/>
</g>
<g>
</g>
<g>
</g>
<g>
</g>
<g>
</g>
<g>
</g>
<g>
</g>
<g>
</g>
<g>
</g>
<g>
</g>
<g>
</g>
<g>
</g>
<g>
</g>
<g>
</g>
<g>
</g>
<g>
</g>
</svg>
