<?xml version="1.0" standalone="no"?>
<!DOCTYPE svg PUBLIC "-//W3C//DTD SVG 20010904//EN"
 "http://www.w3.org/TR/2001/REC-SVG-20010904/DTD/svg10.dtd">
<svg version="1.0" xmlns="http://www.w3.org/2000/svg"
 width="512.000000pt" height="512.000000pt" viewBox="0 0 512.000000 512.000000"
 preserveAspectRatio="xMidYMid meet">

<g transform="translate(0.000000,512.000000) scale(0.100000,-0.100000)"
fill="#000000" stroke="none">
<path d="M1237 4773 c-4 -3 -7 -159 -7 -345 l0 -338 345 0 345 0 0 345 0 345
-338 0 c-186 0 -342 -3 -345 -7z"/>
<path d="M3500 3100 l0 -1080 640 0 640 0 0 1080 0 1080 -640 0 -640 0 0
-1080z m962 773 c16 -15 18 -35 18 -225 0 -125 -4 -217 -10 -229 -10 -18 -23
-19 -233 -19 -160 0 -226 3 -235 12 -9 9 -12 75 -12 235 0 201 2 223 18 232
10 6 103 11 226 11 181 0 212 -2 228 -17z m-594 -1079 c22 -15 22 -19 22 -234
l0 -220 -25 -16 c-23 -15 -27 -15 -50 0 l-25 16 0 220 c0 215 0 219 22 234 12
9 25 16 28 16 3 0 16 -7 28 -16z"/>
<path d="M4090 3645 l0 -145 145 0 145 0 0 145 0 145 -145 0 -145 0 0 -145z"/>
<path d="M910 3695 l-295 -295 960 0 960 0 -295 295 -295 295 -370 0 -370 0
-295 -295z"/>
<path d="M540 3150 l0 -150 1035 0 1035 0 0 150 0 150 -1035 0 -1035 0 0 -150z"/>
<path d="M756 2594 c-26 -25 -19 -51 28 -94 76 -72 71 -104 -37 -207 -40 -38
-70 -77 -77 -99 -26 -79 14 -158 113 -224 95 -64 139 -65 145 -3 3 28 -2 33
-55 63 -70 40 -113 84 -113 116 0 17 21 44 69 91 80 76 101 112 101 178 0 62
-22 107 -78 155 -48 43 -72 49 -96 24z"/>
<path d="M2326 2588 c-9 -12 -16 -26 -16 -30 0 -4 23 -30 50 -58 41 -42 50
-56 50 -86 0 -31 -9 -44 -66 -99 -89 -85 -104 -109 -104 -171 0 -78 57 -148
169 -204 52 -26 88 -21 97 15 8 32 -4 47 -69 83 -124 71 -128 106 -25 205 83
80 104 121 95 193 -6 53 -47 116 -96 150 -44 30 -65 30 -85 2z"/>
<path d="M1542 2498 c-24 -24 -13 -58 33 -101 38 -37 45 -49 45 -83 0 -35 -7
-45 -69 -104 -78 -73 -101 -112 -101 -168 0 -74 97 -178 199 -213 41 -14 71 3
71 40 0 24 -9 34 -66 67 -128 75 -134 108 -34 203 38 37 76 83 85 103 34 82
10 167 -66 232 -44 37 -76 45 -97 24z"/>
<path d="M3500 1130 l0 -790 638 2 637 3 3 788 2 787 -640 0 -640 0 0 -790z
m374 84 c14 -13 16 -48 16 -229 0 -227 -4 -245 -50 -245 -46 0 -50 18 -50 245
0 227 4 245 50 245 10 0 26 -7 34 -16z"/>
<path d="M347 1423 c-4 -3 -7 -114 -7 -245 l0 -238 445 0 445 0 0 245 0 245
-438 0 c-241 0 -442 -3 -445 -7z"/>
<path d="M1330 885 l0 -545 540 0 540 0 0 545 0 545 -540 0 -540 0 0 -545z
m772 228 c16 -15 18 -35 18 -222 0 -171 -3 -210 -16 -229 -15 -22 -19 -22
-233 -22 -191 0 -220 2 -232 17 -11 12 -15 65 -17 220 -3 173 -1 208 13 229
l15 24 217 0 c187 0 219 -2 235 -17z"/>
<path d="M1720 885 l0 -145 150 0 150 0 0 145 0 145 -150 0 -150 0 0 -145z"/>
<path d="M2510 1185 l0 -245 445 0 445 0 0 245 0 245 -445 0 -445 0 0 -245z"/>
<path d="M344 827 c-2 -7 -3 -118 -2 -247 l3 -235 443 -3 442 -2 0 250 0 250
-440 0 c-347 0 -442 -3 -446 -13z"/>
<path d="M2512 593 l3 -248 440 0 440 0 0 245 0 245 -443 3 -442 2 2 -247z"/>
</g>
</svg>
