<?xml version="1.0" encoding="iso-8859-1"?>
<!-- Generator: Adobe Illustrator 19.0.0, SVG Export Plug-In . SVG Version: 6.00 Build 0)  -->
<svg version="1.1" id="Capa_1" xmlns="http://www.w3.org/2000/svg" xmlns:xlink="http://www.w3.org/1999/xlink" x="0px" y="0px"
	 viewBox="0 0 234 234" style="enable-background:new 0 0 234 234;" xml:space="preserve">
<path d="M171,56v-0.5C171,25.448,146.552,1,116.5,1S62,25.448,62,55.5V56H0v77h13v84h14v16h61v-16h58v16h61v-16h14v-84h13V56H171z
	 M92,55.5C92,41.99,102.99,31,116.5,31S141,41.99,141,55.5V56H92V55.5z M153,152h-21v21h-30v-21H81v-30h21v-21h30v21h21V152z"/>
<g>
</g>
<g>
</g>
<g>
</g>
<g>
</g>
<g>
</g>
<g>
</g>
<g>
</g>
<g>
</g>
<g>
</g>
<g>
</g>
<g>
</g>
<g>
</g>
<g>
</g>
<g>
</g>
<g>
</g>
</svg>
