<?xml version="1.0" standalone="no"?>
<!DOCTYPE svg PUBLIC "-//W3C//DTD SVG 20010904//EN"
 "http://www.w3.org/TR/2001/REC-SVG-20010904/DTD/svg10.dtd">
<svg version="1.0" xmlns="http://www.w3.org/2000/svg"
 width="512.000000pt" height="512.000000pt" viewBox="0 0 512.000000 512.000000"
 preserveAspectRatio="xMidYMid meet">

<g transform="translate(0.000000,512.000000) scale(0.100000,-0.100000)"
fill="#000000" stroke="none">
<path d="M1245 5108 c-82 -15 -190 -75 -259 -142 -210 -208 -208 -539 3 -746
106 -104 219 -150 366 -150 156 1 263 45 370 154 104 106 155 227 155 369 0
334 -301 578 -635 515z"/>
<path d="M2860 4215 l0 -605 375 0 375 0 0 -150 0 -150 -674 0 -674 0 -7 78
c-20 214 -119 425 -269 571 l-45 44 -64 -51 c-310 -247 -734 -247 -1045 1
l-63 50 -41 -39 c-149 -144 -253 -363 -273 -576 l-7 -78 -224 0 -224 0 0 -300
0 -300 2560 0 2560 0 0 300 0 300 -600 0 -600 0 0 150 0 150 373 2 372 3 3
603 2 602 -905 0 -905 0 0 -605z"/>
<path d="M300 1205 l0 -1205 817 0 817 0 -72 44 c-445 275 -687 746 -651 1268
30 428 272 820 650 1053 l73 45 -817 0 -817 0 0 -1205z"/>
<path d="M3259 2365 c377 -233 619 -625 649 -1053 37 -521 -204 -993 -649
-1267 l-73 -45 817 0 817 0 0 1205 0 1205 -817 0 -817 0 73 -45z"/>
<path d="M2416 2250 c-341 -54 -625 -253 -785 -551 -82 -152 -121 -312 -121
-494 0 -238 69 -446 209 -632 334 -443 950 -552 1412 -251 245 160 410 404
464 691 21 110 19 291 -4 402 -85 412 -404 733 -816 821 -86 19 -280 26 -359
14z m294 -590 l0 -150 -150 0 -150 0 0 150 0 150 150 0 150 0 0 -150z m0 -760
l0 -300 -150 0 -150 0 0 300 0 300 150 0 150 0 0 -300z"/>
</g>
</svg>
