<?xml version="1.0" standalone="no"?>
<!DOCTYPE svg PUBLIC "-//W3C//DTD SVG 20010904//EN"
 "http://www.w3.org/TR/2001/REC-SVG-20010904/DTD/svg10.dtd">
<svg version="1.0" xmlns="http://www.w3.org/2000/svg"
 width="512.000000pt" height="512.000000pt" viewBox="0 0 512.000000 512.000000"
 preserveAspectRatio="xMidYMid meet">

<g transform="translate(0.000000,512.000000) scale(0.100000,-0.100000)"
fill="#000000" stroke="none">
<path d="M2807 5095 c-20 -8 -70 -31 -110 -52 -92 -48 -270 -222 -346 -338
-141 -216 -253 -522 -290 -790 -6 -44 -13 -92 -16 -107 l-4 -28 409 0 410 0 0
665 c0 366 -3 665 -7 664 -5 0 -25 -7 -46 -14z"/>
<path d="M3160 4445 l0 -665 411 0 410 0 -6 58 c-13 109 -56 304 -92 415 -133
413 -362 713 -633 829 -36 15 -71 28 -77 28 -10 0 -13 -140 -13 -665z"/>
<path d="M2025 4906 c-475 -230 -816 -611 -930 -1038 l-24 -88 334 0 333 0 7
53 c52 418 168 756 358 1040 36 54 62 97 58 97 -3 0 -64 -29 -136 -64z"/>
<path d="M3860 4966 c0 -3 24 -40 54 -83 127 -184 232 -424 296 -676 35 -140
70 -340 70 -401 l0 -26 335 0 335 0 -6 28 c-97 433 -421 825 -884 1069 -80 42
-200 95 -200 89z"/>
<path d="M1053 3464 c-10 -26 16 -210 37 -264 112 -284 434 -410 680 -267 72
42 72 41 39 110 -42 90 -69 207 -76 330 l-6 107 -334 0 c-294 0 -334 -2 -340
-16z"/>
<path d="M2033 3464 c-10 -26 6 -170 27 -237 55 -177 214 -318 393 -347 134
-21 255 14 380 110 l27 22 0 -971 0 -971 -873 0 -872 0 -340 360 c-187 199
-368 391 -401 428 l-62 67 -103 -100 c-57 -55 -104 -105 -104 -111 0 -6 179
-201 398 -433 l397 -421 0 -275 0 -275 -450 0 -450 0 0 -150 0 -150 2560 0
2560 0 0 150 0 150 -375 0 -375 0 0 225 0 225 223 2 222 3 3 153 3 152 -831 0
-830 0 0 970 c0 534 3 970 6 970 4 0 22 -14 42 -31 88 -78 241 -120 360 -99
244 42 406 237 420 503 l5 97 -414 -2 -414 -3 -3 -227 -2 -228 -150 0 -150 0
0 230 0 230 -410 0 c-365 0 -411 -2 -417 -16z m827 -2929 l0 -225 -827 2 -828
3 -3 223 -2 222 830 0 830 0 0 -225z m1210 0 l0 -225 -455 0 -455 0 0 225 0
225 455 0 455 0 0 -225z"/>
<path d="M4296 3468 c-3 -7 -7 -60 -10 -118 -5 -113 -22 -188 -62 -284 -40
-93 -39 -95 42 -137 138 -72 284 -73 422 -3 175 87 291 294 280 495 l-3 54
-333 3 c-261 2 -333 0 -336 -10z"/>
</g>
</svg>
