<?xml version="1.0" standalone="no"?>
<!DOCTYPE svg PUBLIC "-//W3C//DTD SVG 20010904//EN"
 "http://www.w3.org/TR/2001/REC-SVG-20010904/DTD/svg10.dtd">
<svg version="1.0" xmlns="http://www.w3.org/2000/svg"
 width="512.000000pt" height="512.000000pt" viewBox="0 0 512.000000 512.000000"
 preserveAspectRatio="xMidYMid meet">

<g transform="translate(0.000000,512.000000) scale(0.100000,-0.100000)"
fill="#000000" stroke="none">
<path d="M1370 4770 c-11 -11 -22 -30 -24 -42 -31 -149 -43 -190 -76 -256
-145 -289 -465 -450 -770 -387 -144 30 -152 30 -178 2 -23 -24 -23 -27 -23
-260 2 -709 121 -1310 352 -1768 51 -103 168 -299 177 -299 4 0 101 13 217 29
1112 156 1852 158 2940 10 121 -16 230 -32 241 -35 17 -5 28 5 54 48 61 99
168 312 214 426 169 420 278 1044 288 1650 l3 174 -29 25 c-20 17 -37 23 -55
20 -14 -3 -64 -13 -111 -22 -220 -45 -460 29 -627 193 -105 101 -171 228 -204
387 -13 65 -24 95 -40 108 -20 16 -91 17 -1175 17 -1136 0 -1154 0 -1174 -20z
m1453 -334 c459 -118 809 -502 893 -976 22 -125 20 -335 -5 -456 -45 -217
-113 -366 -248 -541 -241 -311 -642 -485 -1028 -445 -534 56 -965 466 -1060
1009 -19 111 -19 317 0 429 90 515 479 909 985 1000 119 21 342 12 463 -20z"/>
<path d="M2500 4301 l-35 -6 73 -33 73 -33 82 22 c106 29 97 33 -123 53 -19 2
-51 0 -70 -3z"/>
<path d="M2123 4210 c-82 -38 -186 -106 -250 -164 l-53 -48 0 -217 0 -217 133
-59 c72 -32 137 -58 142 -58 7 0 333 235 374 269 2 1 13 87 25 190 l22 187
-60 27 c-34 15 -106 48 -162 74 -56 25 -103 46 -105 46 -2 -1 -32 -14 -66 -30z"/>
<path d="M2850 4123 c-91 -25 -168 -49 -171 -54 -3 -5 -13 -80 -23 -167 -9
-86 -19 -164 -22 -173 -3 -12 47 -56 180 -157 l184 -140 158 49 c87 28 159 51
160 52 1 1 14 78 28 171 l26 170 -25 37 c-63 89 -269 260 -312 258 -10 0 -92
-21 -183 -46z"/>
<path d="M1624 3710 c-55 -113 -115 -334 -87 -317 6 4 36 40 67 81 l57 73 -3
114 -3 114 -31 -65z"/>
<path d="M3483 3561 l-9 -70 43 -57 c23 -31 44 -59 46 -61 2 -2 0 20 -4 49
-11 70 -50 208 -59 208 -4 0 -11 -31 -17 -69z"/>
<path d="M2390 3453 c-85 -63 -163 -120 -172 -127 -15 -11 -11 -29 47 -216
l63 -205 123 -8 c68 -4 165 -6 214 -5 l90 3 33 100 c18 55 48 148 66 208 l34
107 -161 123 c-89 68 -166 126 -172 129 -5 3 -80 -46 -165 -109z"/>
<path d="M1644 3263 l-117 -146 6 -57 c9 -79 51 -209 103 -312 l43 -86 138
-32 c76 -17 153 -36 172 -40 19 -5 37 -7 41 -5 14 9 150 233 150 246 0 8 -31
113 -68 234 l-69 219 -124 56 c-68 31 -132 59 -141 63 -14 5 -43 -26 -134
-140z"/>
<path d="M3196 3322 l-150 -48 -68 -209 c-37 -116 -68 -218 -68 -227 0 -9 41
-66 91 -127 66 -80 97 -111 113 -110 11 0 82 13 156 27 l135 27 36 63 c42 72
104 251 115 329 l6 52 -98 135 c-55 74 -103 135 -109 135 -5 0 -77 -21 -159
-47z"/>
<path d="M2242 2613 c-41 -65 -74 -122 -74 -126 0 -5 36 -71 81 -147 55 -93
89 -140 104 -145 12 -3 79 -9 149 -12 95 -4 150 -1 221 11 l94 17 71 132 c39
73 72 137 74 143 2 6 -40 64 -92 128 l-94 116 -231 0 -230 0 -73 -117z"/>
<path d="M1887 2427 c23 -25 127 -99 171 -121 l34 -17 -28 48 c-40 70 -52 79
-127 95 -67 15 -67 15 -50 -5z"/>
<path d="M3160 2440 c-36 -9 -50 -23 -81 -83 l-20 -38 28 18 c35 21 143 105
143 109 0 6 -31 3 -70 -6z"/>
<path d="M2125 1739 c-455 -23 -1332 -129 -1385 -168 -43 -31 -37 -66 53 -335
67 -200 88 -254 109 -269 24 -18 29 -18 379 32 1070 151 1522 149 2599 -10
113 -16 223 -32 245 -35 74 -11 83 4 180 295 90 273 92 284 49 323 -28 25
-614 106 -1034 143 -389 34 -832 43 -1195 24z"/>
<path d="M373 1236 c-106 -28 -202 -59 -213 -68 -11 -10 -22 -29 -26 -44 -12
-48 21 -74 172 -137 76 -32 140 -60 142 -62 3 -2 -13 -26 -35 -52 -115 -139
-153 -195 -153 -229 0 -42 30 -74 69 -74 41 0 870 219 899 237 13 8 22 17 19
19 -3 3 -74 -5 -158 -17 -130 -18 -161 -20 -199 -10 -114 31 -148 78 -227 318
-50 150 -60 173 -78 172 -11 -1 -107 -24 -212 -53z"/>
<path d="M4426 1113 c-66 -201 -88 -242 -153 -283 -66 -42 -109 -45 -276 -20
-157 24 -187 23 -147 -2 30 -19 857 -238 898 -238 38 0 72 37 72 78 0 24 -21
57 -96 152 -75 95 -94 124 -83 131 8 5 71 32 141 60 69 28 134 59 144 70 9 11
17 33 17 50 0 56 -30 72 -244 128 -108 28 -201 51 -206 51 -4 0 -35 -80 -67
-177z"/>
<path d="M2160 939 c-161 -11 -511 -49 -533 -57 -55 -22 835 -652 920 -652 24
0 238 127 396 237 245 168 536 399 521 413 -11 9 -359 46 -559 60 -162 11
-578 11 -745 -1z"/>
</g>
</svg>
