<?xml version="1.0" standalone="no"?>
<!DOCTYPE svg PUBLIC "-//W3C//DTD SVG 20010904//EN"
 "http://www.w3.org/TR/2001/REC-SVG-20010904/DTD/svg10.dtd">
<svg version="1.0" xmlns="http://www.w3.org/2000/svg"
 width="512.000000pt" height="512.000000pt" viewBox="0 0 512.000000 512.000000"
 preserveAspectRatio="xMidYMid meet">

<g transform="translate(0.000000,512.000000) scale(0.100000,-0.100000)"
fill="#000000" stroke="none">
<path d="M1057 4869 c-182 -21 -437 -93 -475 -135 -22 -25 -22 -29 -22 -286 0
-244 1 -260 18 -253 240 95 543 139 799 117 190 -17 395 -62 531 -118 9 -5 12
50 12 255 0 314 10 292 -155 344 -242 77 -481 103 -708 76z"/>
<path d="M1070 4149 c-47 -5 -91 -11 -97 -14 -10 -3 -13 -78 -13 -326 0 -282
2 -320 15 -315 67 25 378 30 502 7 l43 -8 -2 321 -3 321 -45 7 c-85 12 -315
17 -400 7z"/>
<path d="M693 4065 c-137 -46 -194 -76 -235 -125 -54 -63 -58 -88 -58 -394 l0
-277 43 26 c61 39 211 109 290 136 l67 24 0 322 c0 178 -1 323 -2 323 -2 0
-49 -16 -105 -35z"/>
<path d="M1680 3776 l0 -323 43 -12 c73 -22 209 -81 279 -122 36 -21 69 -39
73 -39 3 0 5 129 3 288 -3 272 -4 289 -25 327 -44 83 -125 131 -320 188 l-53
16 0 -323z"/>
<path d="M2240 2074 l0 -1594 280 0 280 0 0 559 0 558 -56 6 c-67 7 -122 40
-155 94 -36 57 -34 154 3 210 15 22 44 51 65 64 l38 24 745 0 745 0 38 -24
c21 -13 50 -42 65 -64 23 -34 27 -52 27 -107 0 -55 -4 -73 -27 -107 -35 -54
-85 -83 -153 -90 l-55 -6 0 -558 0 -559 320 0 320 0 0 1381 c0 922 -3 1387
-10 1399 -6 11 -19 24 -30 30 -11 6 -554 91 -1208 190 -653 99 -1197 181
-1209 183 l-23 4 0 -1593z m286 1112 c11 -8 39 -63 64 -125 24 -61 46 -111 50
-111 4 0 26 50 50 111 25 62 53 117 64 125 13 9 46 14 89 14 59 0 71 -3 92
-25 l25 -24 0 -336 0 -335 -80 0 -80 0 -2 207 -3 208 -44 -113 c-46 -117 -66
-142 -111 -142 -45 0 -65 25 -111 142 l-44 113 -3 -208 -2 -207 -80 0 -80 0 0
335 0 336 25 24 c21 22 33 25 92 25 43 0 76 -5 89 -14z m963 -4 c18 -14 38
-82 105 -349 72 -289 81 -333 67 -337 -9 -3 -36 -10 -61 -16 -25 -6 -52 -13
-61 -16 -14 -4 -22 19 -49 126 l-32 130 -98 0 -98 0 -32 -130 c-29 -116 -35
-130 -51 -125 -11 3 -27 7 -36 9 -10 3 -37 10 -59 15 l-42 11 84 332 c67 268
87 336 105 350 17 15 41 18 129 18 88 0 112 -3 129 -18z m431 -262 l0 -280
120 0 120 0 0 -80 0 -80 -175 0 c-173 0 -176 0 -200 25 l-25 24 0 336 0 335
80 0 80 0 0 -280z m480 0 l0 -280 120 0 120 0 0 -80 0 -80 -175 0 c-173 0
-176 0 -200 25 l-25 24 0 336 0 335 80 0 80 0 0 -280z"/>
<path d="M3322 2960 l-20 -80 58 0 58 0 -20 80 c-16 62 -24 80 -38 80 -14 0
-22 -18 -38 -80z"/>
<path d="M1088 3350 c-37 -5 -81 -11 -98 -15 l-30 -7 0 -320 c0 -282 2 -319
15 -314 67 25 378 30 502 7 l43 -8 0 318 0 319 -22 5 c-97 22 -286 29 -410 15z"/>
<path d="M1680 2971 l0 -318 43 -12 c73 -22 209 -81 279 -122 36 -21 69 -39
72 -39 3 0 6 135 6 300 l0 300 -45 33 c-62 45 -207 121 -288 152 l-67 25 0
-319z"/>
<path d="M720 3256 c-88 -37 -178 -84 -251 -133 l-69 -46 0 -304 0 -304 42 26
c65 41 236 121 301 141 l57 18 0 313 c0 244 -3 313 -12 313 -7 -1 -38 -11 -68
-24z"/>
<path d="M1088 2550 c-37 -5 -81 -11 -98 -15 l-30 -7 0 -320 c0 -282 2 -319
15 -314 67 25 378 30 502 7 l43 -8 0 318 0 319 -22 5 c-97 22 -286 29 -410 15z"/>
<path d="M1680 2171 l0 -318 43 -12 c73 -22 209 -81 279 -122 36 -21 69 -39
72 -39 3 0 6 135 6 300 l0 300 -45 33 c-62 45 -207 121 -288 152 l-67 25 0
-319z"/>
<path d="M720 2456 c-88 -37 -178 -84 -251 -133 l-69 -46 0 -304 0 -304 42 26
c65 41 236 121 301 141 l57 18 0 313 c0 244 -3 313 -12 313 -7 -1 -38 -11 -68
-24z"/>
<path d="M2732 1828 c-16 -16 -15 -43 2 -57 9 -8 204 -10 711 -9 652 3 699 4
709 21 8 12 8 22 0 35 -10 16 -57 17 -711 20 -535 2 -702 -1 -711 -10z"/>
<path d="M1088 1750 c-37 -5 -81 -11 -98 -15 l-30 -7 0 -360 c0 -317 2 -359
15 -354 67 25 378 30 502 7 l43 -8 0 358 0 359 -22 5 c-97 22 -286 29 -410 15z"/>
<path d="M1680 1331 l0 -358 43 -12 c73 -22 209 -81 279 -122 36 -21 69 -39
72 -39 3 0 6 153 6 340 l0 340 -45 33 c-62 45 -207 121 -288 152 l-67 25 0
-359z"/>
<path d="M720 1656 c-88 -37 -178 -84 -251 -133 l-69 -46 0 -344 0 -344 42 26
c65 41 236 121 301 141 l57 18 0 353 c0 276 -3 353 -12 353 -7 -1 -38 -11 -68
-24z"/>
<path d="M2960 1040 l0 -560 200 0 200 0 0 560 0 560 -200 0 -200 0 0 -560z"/>
<path d="M3520 1040 l0 -560 200 0 200 0 0 560 0 560 -200 0 -200 0 0 -560z"/>
<path d="M1088 870 c-37 -5 -81 -11 -98 -15 l-30 -7 0 -184 0 -184 280 0 280
0 0 185 c0 214 17 188 -135 205 -102 11 -199 11 -297 0z"/>
<path d="M1680 645 l0 -165 200 0 200 0 0 60 c0 59 0 60 -45 93 -62 45 -207
121 -288 152 l-67 25 0 -165z"/>
<path d="M720 776 c-88 -37 -178 -84 -251 -133 l-69 -46 0 -58 0 -59 200 0
200 0 0 160 c0 122 -3 160 -12 160 -7 -1 -38 -11 -68 -24z"/>
<path d="M252 308 c-16 -16 -15 -43 2 -57 10 -8 621 -10 2311 -9 2176 3 2298
4 2309 21 8 12 8 22 0 35 -11 16 -133 17 -2311 20 -1780 1 -2302 -1 -2311 -10z"/>
</g>
</svg>
