<?xml version='1.0' encoding='iso-8859-1'?>
<!DOCTYPE svg PUBLIC '-//W3C//DTD SVG 1.1//EN' 'http://www.w3.org/Graphics/SVG/1.1/DTD/svg11.dtd'>
<svg version="1.1" xmlns="http://www.w3.org/2000/svg" viewBox="0 0 314.759 314.759" xmlns:xlink="http://www.w3.org/1999/xlink" enable-background="new 0 0 314.759 314.759">
  <g>
    <circle cx="79.42" cy="25.907" r="25.907"/>
    <path d="m210.416,70.721l-24.177-37.298c-1.398-2.157-3.793-3.458-6.363-3.458-2.57,0-4.965,1.302-6.363,3.458l-24.177,37.298c-1.512,2.332-1.627,5.304-0.3,7.746 1.327,2.442 3.884,3.962 6.663,3.962h15.677v20.093l-25.883,8.094c0,0-2.259-16.492-2.889-22.004-1.844-16.126-13.632-28.542-29.564-28.542h-67.239c-16.23,0-29.5,13.204-29.581,29.434l-.462,91.833c-0.034,6.903 5.533,12.527 12.438,12.563 0.021,0 0.042,0 0.063,0 6.874,0 12.464-5.555 12.499-12.438l.462-91.833c0.007-1.368 1.12-2.472 2.487-2.468 1.367,0.004 2.473,1.113 2.473,2.48l.006,90.22v119.897c0,8.284 6.716,15 15,15 8.284,0 15-6.716 15-15v-116.658c0-1.788 1.449-3.238 3.238-3.238 1.788,0 3.238,1.45 3.238,3.238v116.659c0,8.284 6.716,15 15,15 8.284,0 15-6.716 15-15l-.266-209.954c-0.002-1.349 1.016-2.48 2.357-2.621 1.341-0.141 2.574,0.755 2.85,2.074 0.836,3.985 1.652,13.57 5.037,39.354 0.481,3.659 2.554,6.919 5.663,8.906 3.104,1.984 6.932,2.501 10.462,1.396l32.609-10.198v14.624c0,4.694 3.806,8.5 8.5,8.5 4.694,0 8.5-3.806 8.5-8.5v-19.94l1.232-.385c6.589-2.062 10.26-9.073 8.198-15.662-1.406-4.497-5.12-7.63-9.43-8.514v-16.409h15.678c2.779,0 5.336-1.52 6.663-3.962 1.328-2.442 1.213-5.415-0.299-7.747z"/>
    <path d="m178.177,239.487v20.355c0,4.188 3.395,7.583 7.583,7.583h60.324c4.188,0 7.583-3.395 7.583-7.583v-20.355c0-4.188-3.395-7.583-7.583-7.583h-60.324c-4.188,0-7.583,3.395-7.583,7.583z"/>
    <path d="m203.751,279.237h-60.324c-4.188,0-7.583,3.395-7.583,7.583v20.355c0,4.188 3.395,7.583 7.583,7.583h60.324c4.188,0 7.583-3.395 7.583-7.583v-20.355c0.001-4.188-3.395-7.583-7.583-7.583z"/>
    <path d="m291.418,279.237h-60.324c-4.188,0-7.583,3.395-7.583,7.583v20.355c0,4.188 3.395,7.583 7.583,7.583h60.324c4.188,0 7.583-3.395 7.583-7.583v-20.355c-5.68434e-14-4.188-3.395-7.583-7.583-7.583z"/>
    <path d="m291.418,184.57h-60.324c-4.188,0-7.583,3.395-7.583,7.583v20.355c0,4.188 3.395,7.583 7.583,7.583h60.324c4.188,0 7.583-3.395 7.583-7.583v-20.355c-5.68434e-14-4.187-3.395-7.583-7.583-7.583z"/>
    <path d="m158.816,231.904h-15.389c-4.188,0-7.583,3.395-7.583,7.583v20.355c0,4.188 3.395,7.583 7.583,7.583h15.389c4.188,0 7.583-3.395 7.583-7.583v-20.355c0.001-4.188-3.394-7.583-7.583-7.583z"/>
    <path d="m291.418,231.904h-18.389c-4.188,0-7.583,3.395-7.583,7.583v20.355c0,4.188 3.395,7.583 7.583,7.583h18.389c4.188,0 7.583-3.395 7.583-7.583v-20.355c-5.68434e-14-4.188-3.395-7.583-7.583-7.583z"/>
    <path d="m291.418,136.505h-18.389c-4.188,0-7.583,3.395-7.583,7.583v20.355c0,4.188 3.395,7.583 7.583,7.583h18.389c4.188,0 7.583-3.395 7.583-7.583v-20.355c-5.68434e-14-4.188-3.395-7.583-7.583-7.583z"/>
  </g>
</svg>
